{"title":"The Purge Anarchy (2014) 720p Blu-Ray x264 [Dual Audio] [Hindi 5","uid":11364663,"size":1094593361,"categoryP":"video","categoryS":"hd___movies","magnet":"?xt=urn:btih:a3c949befdfae3bda35579eede474ac0a26456e6&amp;dn=The+Purge+Anarchy+%282014%29+720p+Blu-Ray+x264+%5BDual+Audio%5D+%5BHindi+5&amp;tr=udp%3A%2F%2Ftracker.openbittorrent.com%3A80&amp;tr=udp%3A%2F%2Fopen.demonii.com%3A1337&amp;tr=udp%3A%2F%2Ftracker.coppersurfer.tk%3A6969&amp;tr=udp%3A%2F%2Fexodus.desync.com%3A6969","seeders":7,"leechers":4,"uploader":"Mx-","files":4,"time":1415030269,"description":"[center][IMG]http://i.imgur.com/karXmyP.gif[/IMG]\n\n[b]SilverTorrent - Clean And Verified Torrents Download\n\n\n------------------------------------------------------[/b]\n\n[IMG]http://i.imgur.com/0UTiC56.png[/IMG]\n[b][color=maroon]The Purge Anarchy (2014) 720p Blu-Ray x264 [Dual Audio] [Hindi 5.1 - Eng 5.1] By Mx- (HDDR)[/color][/b]\n[IMG]http://i.imgur.com/Wos22jI.png[/IMG]\n\n[IMG]http://i.imgur.com/IR1KRWH.png[/IMG]\n[b]\n[url]http://www.imdb.com/title/tt2975578/[/url]\nRatings: 6.6/10[/b]\n\n[IMG]http://i.imgur.com/akLXdDM.jpg[/IMG]\n[b]General[/b] \nComplete name : The Purge Anarchy (2014) 720p Blu-Ray x264 [Dual Audio] [Hindi 5.1 - Eng 5.1] By Mx- (HDDR)\nFormat : Matroska\nFormat version : Version 4 / Version 2\nFile size : 1.01 GiB\nDuration : 1h 43mn\nOverall bit rate : 1 400 Kbps\nMovie name : Mx- Present\n[/size]\n\n[img]http://imageshack.com/a/img69/7254/sxc8.jpg[/img]\n[b]Video[/b]\nID : 1\nFormat : AVC\nFormat/Info : Advanced Video Codec\nFormat profile : &lt;a class=&quot;__cf_email__&quot; href=&quot;/cdn-cgi/l/email-protection&quot; data-cfemail=&quot;6f270608072f235b415f&quot;&gt;[email&amp;#160;protected]&lt;/a&gt;&lt;script cf-hash='f9e31' type=&quot;text/javascript&quot;&gt;\n/* &lt;![CDATA[ */!function(){try{var t=&quot;currentScript&quot;in document?document.currentScript:function(){for(var t=document.getElementsByTagName(&quot;script&quot;),e=t.length;e--;)if(t[e].getAttribute(&quot;cf-hash&quot;))return t[e]}();if(t&amp;&amp;t.previousSibling){var e,r,n,i,c=t.previousSibling,a=c.getAttribute(&quot;data-cfemail&quot;);if(a){for(e=&quot;&quot;,r=parseInt(a.substr(0,2),16),n=2;a.length-n;n+=2)i=parseInt(a.substr(n,2),16)^r,e+=String.fromCharCode(i);e=document.createTextNode(e),c.parentNode.replaceChild(e,c)}}}catch(u){}}();/* ]]&gt; */&lt;/script&gt;\nFormat settings, CABAC : Yes\nFormat settings, ReFrames : 5 frames\nCodec ID : V_MPEG4/ISO/AVC\nDuration : 1h 43mn\nBit rate : 1 015 Kbps\nWidth : 1 280 pixels\nHeight : 536 pixels\nDisplay aspect ratio : 2.40:1\nFrame rate mode : Constant\nFrame rate : 23.976 fps\nColor space : YUV\nChroma subsampling : 4:2:0\nBit depth : 8 bits\nScan type : Progressive\nBits/(Pixel*Frame) : 0.062\nStream size : 732 MiB (71%)\nTitle : Mx- Present\nWriting library : x264\nLanguage : English\nDefault : No\nForced : No\n\n[img]http://imageshack.com/a/img43/1041/xbcd.jpg[/img]\n[b]Audio #1[/b] \nID : 2\nFormat : AC-3\nFormat/Info : Audio Coding 3\nMode extension : CM (complete main)\nFormat settings, Endianness : Big\nCodec ID : A_AC3\nDuration : 1h 43mn\nBit rate mode : Constant\nBit rate : 192 Kbps\nChannel(s) : 6 channels\nChannel positions : Front: L C R, Side: L R, LFE\nSampling rate : 48.0 KHz\nBit depth : 16 bits\nCompression mode : Lossy\nStream size : 142 MiB (14%)\nTitle : Mx-\nLanguage : Hindi\nDefault : Yes\nForced : No\n\n[img]http://imageshack.com/a/img43/1041/xbcd.jpg[/img]\n[b]Audio #1[/b] \nID : 3\nFormat : AC-3\nFormat/Info : Audio Coding 3\nMode extension : CM (complete main)\nFormat settings, Endianness : Big\nCodec ID : A_AC3\nDuration : 1h 43mn\nBit rate mode : Constant\nBit rate : 192 Kbps\nChannel(s) : 6 channels\nChannel positions : Front: L C R, Side: L R, LFE\nSampling rate : 48.0 KHz\nBit depth : 16 bits\nCompression mode : Lossy\nStream size : 142 MiB (14%)\nTitle : Mx-\nLanguage : English\nDefault : No\nForced : No\n\n[IMG]http://i.imgur.com/uwymIhk.gif[/IMG]\n[IMG]http://i.imgur.com/wafFKOm.jpg[/IMG]\n\n[IMG]http://i.imgur.com/dJn45bM.jpg[/IMG]\n\n[IMG]http://i.imgur.com/G1oF8N1.jpg[/IMG]\n\n[IMG]http://i.imgur.com/F16EPMv.jpg[/IMG]\n\n[IMG]http://i.imgur.com/gpl08qW.jpg[/IMG]\n\n[IMG]http://i.imgur.com/vLSasmQ.png[/IMG]\n\n[b][color=red]\n::::Thanks Team HDRR::::\nBoniin,Invincible,Tariq Qureshi,~HI-MAN\nTaha Rizvi,TBI,Mx-,Sumo Man[/color]\n\n[color=maroon]For More Join Us On Facebook[/color]\n[/center][/b]\n\nGroup HD Movie Releases[/color][/center][/b][/url]\nDESI ROCKER RELEAESEES[/color][/center][/b][/url]\nMovie Zone[/color][/center][/b][/url]\nAudio Zone[/color][/center][/b][/url]\n\n[center][color=maroon][b]:::DON'T FORGET TO SAY THANKS:::[/b][/color][/center]\n[center][img]http://sphotos-f.ak.fbcdn.net/hphotos-ak-ash3/521853_133463873505680_1907053731_n.jpg[/img]\n[IMG]http://i.imgur.com/FtKQVmO.gif[/IMG][/center]","torrent":{"xt":"urn:btih:a3c949befdfae3bda35579eede474ac0a26456e6","amp;dn":"The+Purge+Anarchy+%282014%29+720p+Blu-Ray+x264+%5BDual+Audio%5D+%5BHindi+5","amp;tr":["udp%3A%2F%2Ftracker.openbittorrent.com%3A80","udp%3A%2F%2Fopen.demonii.com%3A1337","udp%3A%2F%2Ftracker.coppersurfer.tk%3A6969","udp%3A%2F%2Fexodus.desync.com%3A6969"],"infoHash":"a3c949befdfae3bda35579eede474ac0a26456e6","infoHashBuffer":{"type":"Buffer","data":[163,201,73,190,253,250,227,189,163,85,121,238,222,71,74,192,162,100,86,230]},"announce":[],"urlList":[]}}